# xmcd CD database file
#
# Track frame offsets:
#	225
#	16692
#	41352
#	61302
#	84011
#	107389
#	126281
#	146315
#	167882
#	197250
#	213774
#	230520
#	253396
#	280341
#
# Disc length: 4147 seconds
#
# Revision: 1
# Processed by: cddbd v1.5.2PL0 Copyright (c) Steve Scherf et al.
# Submitted via: CDex 1.70beta2
#
DISCID=b110300e
DTITLE=Elb Meadow Ramblers Dresden - 45 Jahre Elb Meadow Ramblers Dresden
DYEAR=2000
DGENRE=Jazz
TTITLE0=Way Down Yonder in New Orleans
TTITLE1=Alexanders Ragtime Band
TTITLE2=The Jeep is Jumping
TTITLE3=As Time Goes By
TTITLE4=Struttin' With Some Barbeque
TTITLE5=Undecided
TTITLE6=Bei Mir Bist Du Schön
TTITLE7=What A Wonderful World
TTITLE8=Mack The Knife
TTITLE9=The Sheik Of Araby
TTITLE10=Rosetta
TTITLE11=I Can't Give You Anything But Love
TTITLE12=St. Louis Blues
TTITLE13=Honeysuckle Rose
EXTD=YEAR: 2000
EXTT0=
EXTT1=
EXTT2=
EXTT3=
EXTT4=
EXTT5=
EXTT6=
EXTT7=
EXTT8=
EXTT9=
EXTT10=
EXTT11=
EXTT12=
EXTT13=
PLAYORDER=
